<?xml version="1.0" encoding="utf-8"?>
<!-- Generator: Adobe Illustrator 16.0.0, SVG Export Plug-In . SVG Version: 6.00 Build 0)  -->
<!DOCTYPE svg PUBLIC "-//W3C//DTD SVG 1.1//EN" "http://www.w3.org/Graphics/SVG/1.1/DTD/svg11.dtd">
<svg version="1.1" id="Layer_1" xmlns="http://www.w3.org/2000/svg" xmlns:xlink="http://www.w3.org/1999/xlink" x="0px" y="0px"
	 viewBox="0 0 121.494 158.992" enable-background="new 0 0 121.494 158.992"
	 xml:space="preserve">
<path fill-rule="evenodd" clip-rule="evenodd" fill="#5F5F5F" d="M58.059,137.257c-5.496,0.004-10.994,0.086-16.486-0.047
	c-1.58-0.038-4.051-0.2-4.565-1.146c-2.799-5.157-8.23-6.375-12.625-9.087C9.881,118.03,6.731,103.216,17.088,89.6
	c4.834-6.354,5.2-13.073,3.988-20.293c-1.152-6.86-2.95-13.636-3.732-20.531c-1.479-13.022,5.55-20.502,18.727-20.492
	c2.49,0.001,4.982,0.428,7.467,0.37c0.987-0.022,1.957-0.825,2.935-1.273c-0.453-0.968-0.842-1.973-1.376-2.894
	c-0.696-1.201-2.386-2.675-2.095-3.431c0.701-1.813,2.228-4.583,3.563-4.665c7.573-0.465,15.244-0.818,22.766-0.06
	c4.452,0.449,4.306,4.691,1.548,8.48c-2.072,2.848-2.635,7.004-3.229,10.682c-2.922,18.09,4.419,31.417,18.887,41.991
	c5.507,4.024,10.622,9.31,14.22,15.077c8.162,13.088,4.709,25.509-8.147,33.911c-4.598,3.004-10.508,4.095-13.505,9.573
	c-0.52,0.949-2.982,1.117-4.559,1.156C69.053,137.335,63.555,137.254,58.059,137.257z M29.83,76.436
	c0.413,0.437,0.825,0.873,1.238,1.311c3.501-3.958,7.009-7.91,10.503-11.875c4.559-5.176,6.875-11.188,7.065-18.113
	c0.338-12.364,0.292-12.474-12.24-12.427c-8.229,0.031-12.658,5.397-11.255,13.671C26.691,58.149,28.266,67.292,29.83,76.436z"/>
</svg>
