<?xml version="1.0" encoding="utf-8"?>
<!-- Generator: Adobe Illustrator 16.0.0, SVG Export Plug-In . SVG Version: 6.00 Build 0)  -->
<!DOCTYPE svg PUBLIC "-//W3C//DTD SVG 1.1//EN" "http://www.w3.org/Graphics/SVG/1.1/DTD/svg11.dtd">
<svg version="1.1" id="Layer_1" xmlns="http://www.w3.org/2000/svg" xmlns:xlink="http://www.w3.org/1999/xlink" x="0px" y="0px"
	 viewBox="0 0 144.786 113" enable-background="new 0 0 144.786 113" xml:space="preserve">
<g>
	<path fill-rule="evenodd" clip-rule="evenodd" fill="#5F5F5F" d="M91.974,93.9c-13.115,0-26.024,0-39.144,0
		c1.434,1.187,2.418,2.541,2.082,4.271c-0.209,1.078-0.731,2.257-1.478,3.04c-1.691,1.776-4.568,1.581-6.28-0.201
		c-1.943-2.022-1.633-4.463,0.977-7.27c-3.33-0.571-6.102-2.075-8.243-4.66c-1.848-2.231-2.681-4.825-3.036-7.69
		c-0.275-2.222-0.949-4.396-1.451-6.59c-0.104-0.455-0.31-0.899-0.336-1.355c-0.089-1.508-0.924-2.345-2.241-2.973
		c-3.64-1.738-5.743-5.635-5.227-9.479c0.559-4.154,3.508-7.403,7.628-8.063c4.525-0.726,8.469,0.76,11.797,3.801
		c3.175,2.9,4.741,6.584,4.816,10.889c0.016,0.853,0.002,1.708,0.002,2.599c13.707-3.455,27.341-3.452,41.026-0.027
		c0.094-1.557,0.078-3.184,0.307-4.774c1.054-7.3,7.407-12.715,14.783-12.678c4.275,0.022,8.051,2.987,9.038,7.096
		c1.01,4.205-0.857,8.528-4.707,10.451c-1.545,0.771-2.368,1.756-2.657,3.479c-0.54,3.211-1.336,6.378-1.957,9.577
		c-0.991,5.105-5.142,9.231-10.425,10.278c-0.177,0.035-0.354,0.072-0.568,0.115c2.68,2.932,2.913,5.539,0.726,7.514
		c-1.858,1.678-4.703,1.533-6.404-0.323C89.159,98.915,89.48,96.176,91.974,93.9z"/>
	<path fill-rule="evenodd" clip-rule="evenodd" fill="#5F5F5F" d="M87.733,63.259c-10.241-1.598-20.426-1.597-30.679,0.001
		c-0.098-0.259-0.209-0.499-0.279-0.747C55.036,56.251,51.214,51.738,45.336,49c-0.768-0.358-1.007-0.753-0.986-1.56
		c0.104-4.044-0.093-8.112,0.271-12.129c1.092-12.079,10.936-22.407,22.963-24.369c15.121-2.465,29.064,6.967,32.227,21.964
		c0.563,2.671,0.496,5.485,0.612,8.238c0.092,2.176,0.045,4.359-0.007,6.538c-0.009,0.37-0.262,0.936-0.557,1.07
		c-6.242,2.851-10.222,7.584-11.975,14.206C87.863,63.031,87.815,63.096,87.733,63.259z"/>
</g>
</svg>
