<?xml version="1.0" encoding="utf-8"?>
<!-- Generator: Adobe Illustrator 16.0.0, SVG Export Plug-In . SVG Version: 6.00 Build 0)  -->
<!DOCTYPE svg PUBLIC "-//W3C//DTD SVG 1.1//EN" "http://www.w3.org/Graphics/SVG/1.1/DTD/svg11.dtd">
<svg version="1.1" id="Layer_1" xmlns="http://www.w3.org/2000/svg" xmlns:xlink="http://www.w3.org/1999/xlink" x="0px" y="0px"
	 viewBox="0 0 125 120" enable-background="new 0 0 125 120" xml:space="preserve">
<path fill-rule="evenodd" clip-rule="evenodd" fill="#5F5F5F" d="M97.385,105.023c0-2.263-0.01-4.303,0.001-6.342
	c0.011-1.946,0.979-3.132,2.516-3.107c1.504,0.022,2.448,1.173,2.455,3.045c0.014,2.818,0.021,5.637-0.001,8.455
	c-0.016,1.998-0.929,2.92-2.941,2.92c-21.688,0.009-43.375,0.037-65.063-0.013c-6.878-0.015-12.068-5.486-12.066-12.476
	c0.008-23.118,0.039-46.234-0.007-69.353c-0.007-3.496,0.755-6.624,3.109-9.262c2.193-2.458,4.96-3.788,8.241-4.041
	c0.529-0.041,1.061-0.036,1.592-0.036c21.197-0.001,42.396-0.001,63.593-0.001c0.164,0,0.327-0.001,0.49,0.001
	c2.166,0.032,3.05,0.897,3.054,3.061c0.011,6.412,0.005,12.825,0.005,19.238c0,16.623,0,33.245,0,49.868
	c0,3.033-0.798,3.842-3.839,3.842c-21.155,0.003-42.313,0.013-63.469-0.009c-3.257-0.003-5.736,1.25-7.112,4.233
	c-1.948,4.224,0.772,9.122,5.379,9.828c0.682,0.105,1.381,0.143,2.072,0.143c20.136,0.008,40.271,0.006,60.408,0.006
	C96.278,105.023,96.758,105.023,97.385,105.023z M41.096,52.485c0-8.166,0.001-16.334-0.002-24.5c0-0.489,0.012-0.985-0.061-1.467
	c-0.177-1.184-1.191-2.059-2.362-2.091c-1.206-0.035-2.292,0.863-2.49,2.091c-0.064,0.4-0.058,0.813-0.058,1.221
	c-0.002,16.416-0.002,32.832,0,49.248c0,0.407-0.009,0.819,0.049,1.221c0.191,1.319,1.246,2.182,2.559,2.126
	c1.494-0.063,2.359-1.121,2.361-2.979C41.101,69.065,41.096,60.775,41.096,52.485z"/>
</svg>
