<?xml version="1.0" encoding="utf-8"?>
<!-- Generator: Adobe Illustrator 16.0.0, SVG Export Plug-In . SVG Version: 6.00 Build 0)  -->
<!DOCTYPE svg PUBLIC "-//W3C//DTD SVG 1.1//EN" "http://www.w3.org/Graphics/SVG/1.1/DTD/svg11.dtd">
<svg version="1.1" id="Layer_1" xmlns="http://www.w3.org/2000/svg" xmlns:xlink="http://www.w3.org/1999/xlink" x="0px" y="0px"
	 viewBox="0 0 144.786 113" enable-background="new 0 0 144.786 113" xml:space="preserve">
<path fill-rule="evenodd" clip-rule="evenodd" fill="#5F5F5F" d="M68.505,99.423c-15.502,0-31.005,0.038-46.507-0.015
	c-9.006-0.03-14.294-8.74-9.936-16.553c1.031-1.847,2.882-3.483,4.731-4.585c15.242-9.079,30.572-18.01,45.876-26.984
	c2.941-1.724,3.167-4.752,0.483-6.907c-0.813-0.652-1.707-1.201-2.553-1.813c-5.369-3.882-7.126-10.085-4.672-16.473
	c2.432-6.332,8.297-10.111,14.671-9.453c6.423,0.664,12.149,5.967,13.028,12.083c0.08,0.553,0.091,1.123,0.075,1.683
	c-0.071,2.463-1.667,4.302-3.842,4.456c-2.273,0.16-3.503-1.024-3.997-3.85c-0.805-4.613-4.047-6.984-8.117-5.935
	c-2.638,0.68-4.455,2.591-4.76,5.142c-0.333,2.776,0.514,5.069,2.976,6.607c0.272,0.169,0.56,0.317,0.848,0.458
	c4.015,1.963,6.192,5.085,5.737,9.638c-0.231,2.314,0.628,3.533,2.639,4.701c14.992,8.711,29.902,17.566,44.835,26.378
	c5.375,3.173,7.476,7.627,6.056,12.814c-1.573,5.745-5.541,8.6-12.031,8.604C98.867,99.43,83.686,99.423,68.505,99.423z
	 M68.188,91.39c14.777,0,29.555,0.001,44.332-0.001c0.722,0,1.574,0.219,2.139-0.086c1.047-0.564,2.494-1.298,2.726-2.223
	c0.265-1.062-0.477-2.476-1.048-3.602c-0.281-0.552-1.151-0.82-1.773-1.185c-12.891-7.531-25.783-15.061-38.678-22.584
	c-2.424-1.414-4.869-3.904-7.296-3.895c-2.525,0.01-5.073,2.389-7.554,3.833C47.784,69.356,34.547,77.09,21.314,84.829
	c-2.493,1.458-3.217,3.896-1.434,5.426c0.858,0.735,2.31,1.084,3.495,1.089C38.313,91.414,53.25,91.391,68.188,91.39z"/>
</svg>
