<?xml version="1.0" encoding="utf-8"?>
<!-- Generator: Adobe Illustrator 16.0.0, SVG Export Plug-In . SVG Version: 6.00 Build 0)  -->
<!DOCTYPE svg PUBLIC "-//W3C//DTD SVG 1.1//EN" "http://www.w3.org/Graphics/SVG/1.1/DTD/svg11.dtd">
<svg version="1.1" id="Layer_1" xmlns="http://www.w3.org/2000/svg" xmlns:xlink="http://www.w3.org/1999/xlink" x="0px" y="0px"
	 viewBox="0 0 144.786 113" enable-background="new 0 0 144.786 113" xml:space="preserve">
<path fill-rule="evenodd" clip-rule="evenodd" fill="#5F5F5F" d="M131.494,72.08c-0.269,2.365-0.428,4.75-0.824,7.095
	c-1.38,8.171-9.632,12.236-17.008,10.272c-5.755-1.532-10.334-4.95-14.482-9.029c-1.476-1.451-2.854-3.019-4.15-4.635
	c-3.704-4.613-8.511-6.772-14.383-6.742c-5.345,0.025-10.691,0.079-16.035-0.017c-5.997-0.107-10.754,2.232-14.876,6.532
	c-3.251,3.393-6.794,6.545-10.463,9.486c-3.048,2.443-6.625,4.073-10.587,4.576c-7.628,0.97-13.742-3.631-14.904-11.198
	c-1.239-8.069,0.012-15.924,2.22-23.657c2.47-8.653,6.068-16.772,12.115-23.591c3.217-3.629,6.965-6.485,11.82-7.65
	c3.401-0.816,6.73-0.507,9.938,0.663c3.156,1.151,6.247,2.505,9.293,3.926c8.714,4.064,17.397,4.111,26.125,0.073
	c2.771-1.283,5.541-2.592,8.391-3.68c8.083-3.086,15.038-0.99,21.08,4.866c5.207,5.046,8.634,11.245,11.293,17.888
	C129.24,55.21,131.149,63.459,131.494,72.08z M39.257,45.375c-2.328,0-4.448-0.044-6.565,0.014c-1.757,0.047-3.082,0.89-3.769,2.537
	c-0.654,1.568-0.54,3.214,0.727,4.313c0.901,0.782,2.235,1.306,3.434,1.447c1.979,0.233,4.006,0.063,6.179,0.063
	c0,2.264-0.024,4.327,0.007,6.389c0.034,2.181,1.413,3.857,3.417,4.238c2.557,0.484,4.835-1.458,4.932-4.297
	c0.07-2.053,0.014-4.109,0.014-6.318c2.147,0,4.057,0.019,5.966-0.004c2.841-0.035,4.749-1.784,4.706-4.277
	c-0.042-2.448-1.912-4.086-4.7-4.099c-1.952-0.009-3.904-0.001-5.982-0.001c0-2.255,0.052-4.275-0.013-6.291
	c-0.085-2.685-1.801-4.399-4.256-4.368c-2.424,0.031-4.071,1.837-4.094,4.52C39.244,41.206,39.257,43.172,39.257,45.375z
	 M95.199,37.764c0.021,3.001,2.463,5.434,5.447,5.426c2.955-0.008,5.391-2.505,5.363-5.497c-0.029-3.034-2.434-5.424-5.437-5.404
	C97.579,32.309,95.178,34.755,95.199,37.764z M111.494,43.128c-3.025-0.041-5.498,2.322-5.544,5.297
	c-0.047,2.986,2.355,5.453,5.356,5.5c3.012,0.048,5.491-2.33,5.542-5.313C116.898,45.619,114.507,43.168,111.494,43.128z
	 M89.804,53.925c2.989,0.017,5.469-2.435,5.459-5.394c-0.011-2.997-2.438-5.41-5.443-5.411c-3.033-0.001-5.417,2.37-5.422,5.392
	C84.393,51.54,86.759,53.908,89.804,53.925z M106.011,59.29c-0.013-3.006-2.433-5.421-5.43-5.418
	c-2.975,0.002-5.393,2.466-5.372,5.472c0.021,3.042,2.4,5.409,5.424,5.398C103.634,64.729,106.023,62.307,106.011,59.29z"/>
</svg>
