<?xml version="1.0" encoding="utf-8"?>
<!-- Generator: Adobe Illustrator 16.0.0, SVG Export Plug-In . SVG Version: 6.00 Build 0)  -->
<!DOCTYPE svg PUBLIC "-//W3C//DTD SVG 1.1//EN" "http://www.w3.org/Graphics/SVG/1.1/DTD/svg11.dtd">
<svg version="1.1" id="Layer_1" xmlns="http://www.w3.org/2000/svg" xmlns:xlink="http://www.w3.org/1999/xlink" x="0px" y="0px"
	 viewBox="0 0 144.786 113" enable-background="new 0 0 144.786 113" xml:space="preserve">
<g>
	<path fill-rule="evenodd" clip-rule="evenodd" fill="#5F5F5F" d="M46.229,38.853C58.803,51.434,71.308,63.946,83.834,76.48
		c-2.075,2.097-4.163,4.287-6.338,6.388c-4.284,4.138-9.423,6.604-15.332,7.22C53.553,90.986,46.083,88.367,40,82.175
		c-5.097-5.189-7.588-11.545-7.523-18.79c0.065-7.291,2.819-13.544,7.946-18.736C42.335,42.713,44.274,40.802,46.229,38.853z"/>
	<path fill-rule="evenodd" clip-rule="evenodd" fill="#5F5F5F" d="M71.694,55.833c1.276-1.279,2.673-2.702,4.108-4.084
		c0.168-0.162,0.57-0.202,0.822-0.136c2.805,0.732,5.167-0.033,7.178-2.052c1.315-1.32,2.625-2.646,3.947-3.958
		c2.005-1.991,2.672-4.346,2.017-7.101c-0.07-0.293,0.045-0.754,0.251-0.969c1.406-1.469,2.858-2.893,4.394-4.429
		c3.646,4.726,5.483,10.025,5.596,15.893c0.19,9.909-4.771,17.216-11.955,23.194C82.648,66.788,77.199,61.339,71.694,55.833z"/>
	<path fill-rule="evenodd" clip-rule="evenodd" fill="#5F5F5F" d="M89.507,28.375c-1.415,1.415-2.834,2.862-4.298,4.26
		c-0.176,0.168-0.636,0.179-0.905,0.087c-2.906-0.992-5.425-0.375-7.591,1.764c-1.398,1.381-2.793,2.766-4.167,4.171
		c-2.106,2.155-2.622,4.669-1.686,7.523c0.092,0.283,0.035,0.764-0.153,0.965c-1.271,1.356-2.595,2.662-3.811,3.892
		c-5.486-5.484-10.909-10.905-16.4-16.394c1.344-1.362,2.806-2.9,4.328-4.375c4.081-3.954,8.932-6.433,14.561-7.233
		c7.335-1.043,14.012,0.676,19.981,5.087C89.413,28.159,89.43,28.235,89.507,28.375z"/>
	<path fill-rule="evenodd" clip-rule="evenodd" fill="#5F5F5F" d="M86.049,40.485c-0.336,0.651-0.554,1.411-1.032,1.933
		c-1.395,1.521-2.871,2.97-4.358,4.403c-1.335,1.287-2.864,1.25-4.215-0.033c-0.399-0.379-0.797-0.763-1.158-1.177
		c-1.013-1.164-1.043-2.712,0.022-3.834c1.492-1.573,3.028-3.106,4.601-4.599c1.177-1.117,2.713-1.097,3.893,0.031
		C84.73,38.095,85.887,38.871,86.049,40.485z"/>
</g>
</svg>
