<?xml version="1.0" encoding="utf-8"?>
<!-- Generator: Adobe Illustrator 16.0.0, SVG Export Plug-In . SVG Version: 6.00 Build 0)  -->
<!DOCTYPE svg PUBLIC "-//W3C//DTD SVG 1.1//EN" "http://www.w3.org/Graphics/SVG/1.1/DTD/svg11.dtd">
<svg version="1.1" id="Layer_1" xmlns="http://www.w3.org/2000/svg" xmlns:xlink="http://www.w3.org/1999/xlink" x="0px" y="0px"
	 viewBox="0 0 432 180" enable-background="new 0 0 432 180" xml:space="preserve">
<path fill="#EAE9E8" d="M142.483,71.956c0.422-0.398,0.926-0.598,1.512-0.598c0.609,0,1.113,0.199,1.512,0.598
	c0.281,0.281,0.492,0.645,0.633,1.09l9.527,28.582l9.633-29.004c0.093-0.234,0.234-0.445,0.422-0.633
	c0.422-0.422,0.961-0.633,1.617-0.633c0.609,0,1.125,0.211,1.547,0.633c0.422,0.422,0.633,0.938,0.633,1.547
	c0,0.281-0.059,0.586-0.176,0.914l-11.637,34.909c-0.094,0.281-0.27,0.552-0.527,0.81c-0.375,0.375-0.879,0.563-1.512,0.563
	s-1.148-0.199-1.547-0.6c-0.211-0.211-0.375-0.469-0.492-0.771l-9.633-28.898l-9.633,28.896c-0.094,0.281-0.246,0.526-0.457,0.738
	c-0.422,0.422-0.949,0.633-1.582,0.633c-0.633,0-1.148-0.198-1.547-0.599c-0.211-0.211-0.375-0.469-0.492-0.772l-11.637-34.909
	c-0.118-0.352-0.176-0.656-0.176-0.914c0-0.609,0.211-1.125,0.633-1.547c0.422-0.422,0.937-0.633,1.547-0.633
	c0.609,0,1.137,0.211,1.582,0.633c0.164,0.164,0.304,0.387,0.422,0.668l9.668,28.969l9.527-28.582
	C142.014,72.577,142.225,72.214,142.483,71.956z"/>
<path fill="#EAE9E8" d="M204.5,103.597c-4.734,4.759-9.832,7.138-15.293,7.138c-5.438,0-10.078-1.922-13.922-5.767
	c-3.844-3.844-5.766-8.483-5.766-13.922c0-5.437,1.921-10.078,5.766-13.922c3.844-3.844,8.484-5.766,13.922-5.766
	c5.437,0,10.078,1.922,13.922,5.766c3.844,3.844,5.766,8.485,5.766,13.922v17.508c0,0.61-0.211,1.125-0.633,1.548
	c-0.422,0.422-0.938,0.633-1.547,0.633c-0.61,0-1.131-0.211-1.564-0.633c-0.434-0.423-0.65-0.938-0.65-1.548L204.5,103.597
	L204.5,103.597z M189.207,75.718c-4.219,0-7.828,1.5-10.828,4.5s-4.5,6.609-4.5,10.828s1.5,7.828,4.5,10.828s6.609,4.5,10.828,4.5
	c4.219,0,7.828-1.5,10.828-4.5c2.976-2.976,4.465-6.586,4.465-10.828s-1.489-7.852-4.465-10.828
	C197.034,77.218,193.425,75.718,189.207,75.718z"/>
<path fill="#EAE9E8" d="M218.172,125.429c0,0.609-0.211,1.125-0.633,1.548c-0.423,0.422-0.938,0.633-1.548,0.633
	c-0.61,0-1.125-0.211-1.547-0.633c-0.422-0.423-0.633-0.938-0.633-1.548V91.046c0-5.437,1.921-10.078,5.767-13.922
	c3.844-3.844,8.483-5.766,13.922-5.766c5.438,0,10.078,1.922,13.922,5.766c3.845,3.844,5.767,8.485,5.767,13.922
	c0,5.438-1.922,10.078-5.767,13.922c-3.844,3.845-8.484,5.767-13.922,5.767c-5.438,0-10.078-1.922-13.922-5.767l-1.406-1.371
	V125.429L218.172,125.429z M218.172,91.046c0,4.219,1.5,7.828,4.5,10.828s6.608,4.5,10.828,4.5c4.219,0,7.827-1.5,10.827-4.5
	c2.978-2.976,4.466-6.586,4.466-10.828s-1.488-7.852-4.466-10.828c-3-3-6.608-4.5-10.827-4.5c-4.22,0-7.828,1.5-10.828,4.5
	S218.172,86.827,218.172,91.046z"/>
<g>
	<path fill-rule="evenodd" clip-rule="evenodd" fill="#E9E9E9" d="M79.808,83.643c-1.221-1.098-2.808-1.9-2.78-2.645
		c0.04-1.09,1.002-2.51,1.986-3.129c2.593-1.636,5.379-2.983,8.149-4.319c1.839-0.888,3.452-0.408,4.351,1.492
		c1.352,2.858,2.798,5.702,3.757,8.696c0.396,1.24-0.03,3.064-0.753,4.191c-0.311,0.482-2.331-0.131-3.867-0.273
		c-3.765,3.807-4.106,13.256-0.322,17.494c4.725,5.291,14.147,3.156,16.383-3.828c1.652-5.162,1.588-10.473-1.381-15.074
		c-3.003-4.654-6.735-8.837-10.104-13.259c-0.663-0.869-1.129-1.887-1.687-2.836c1.022-0.314,2.026-0.739,3.072-0.912
		c0.938-0.154,1.942,0.097,2.881-0.054c5.962-0.956,9.86,2.006,13.047,6.593c6.036,8.687,8.743,17.992,5.266,28.38
		c-3.184,9.516-11.586,14.781-22.344,14.232c-9.738-0.496-17.07-6.258-19.034-15.213c-1.307-5.961-0.033-11.668,2.351-17.176
		C79.156,85.137,79.535,84.27,79.808,83.643z"/>
	<path fill-rule="evenodd" clip-rule="evenodd" fill="#E9E9E9" d="M115.427,51.911c1.221,1.177,2.804,2.026,2.799,2.867
		c-0.005,1.052-1.099,2.45-2.108,3.074c-2.608,1.612-5.408,2.925-8.173,4.271c-1.621,0.789-3.141,0.396-3.962-1.206
		c-1.441-2.813-2.916-5.652-3.902-8.638c-0.444-1.345-0.06-3.229,0.608-4.529c0.227-0.441,2.479,0.159,4.293,0.33
		c2.395-4.547,3.785-9.641,1.584-15.027c-1.463-3.583-4.375-5.5-8.415-5.445c-4.577,0.063-7.835,1.993-9.316,5.966
		c-1.784,4.791-2.08,9.848,0.434,14.305c2.62,4.645,6.094,8.814,9.266,13.139c0.79,1.077,1.925,1.895,2.777,2.934
		c1.014,1.238,0.686,2.261-0.932,2.407c-7.137,0.646-13.613,0.253-18.069-6.96c-5.443-8.81-8.28-17.8-4.849-27.952
		c3.162-9.354,11.542-14.749,21.768-14.265c10.124,0.479,17.473,6.025,19.542,14.97c1.401,6.06,0.13,11.856-2.283,17.46
		C116.11,50.491,115.687,51.351,115.427,51.911z"/>
</g>
</svg>
